<svg width="120" height="28" viewBox="0 0 120 28" fill="none" xmlns="http://www.w3.org/2000/svg">
	<path fill-rule="evenodd" clip-rule="evenodd" d="M51.1461 0.216361C50.4761 0.480682 49.8397 0.612561 48.9488 0.671752C48.5679 0.697059 48.1985 0.746409 48.128 0.781276C48.0063 0.841592 48.0007 1.48538 48.0186 13.4905L48.0374 26.1363L48.1899 26.3348C48.2737 26.4439 48.4728 26.5777 48.6322 26.6321C48.8958 26.7219 48.9684 26.7172 49.4277 26.58C49.7058 26.497 50.5648 26.3284 51.3368 26.2054L52.7404 25.9818V22.9433V19.9047L53.9616 18.8103C54.9011 17.9682 55.202 17.7354 55.266 17.8011C55.3117 17.8481 56.2436 19.231 57.3368 20.8742C59.9965 24.8719 60.638 25.812 60.7857 25.9281C60.8629 25.9888 61.2988 26.0613 61.9353 26.1194C63.1613 26.2312 63.6388 26.3105 64.4519 26.5377C65.4095 26.8052 65.7094 26.7569 66.0524 26.2799L66.2451 26.0117L66.0684 25.71C65.6085 24.9252 59.7732 16.1051 59.5994 15.9321C59.4139 15.7474 59.3475 15.7311 58.542 15.6725C58.0694 15.6381 57.6674 15.5953 57.6488 15.5774C57.6302 15.5595 58.9637 14.316 60.6121 12.8141L63.6093 10.0835L61.62 10.0631C60.5259 10.0518 59.5211 10.0618 59.3872 10.085C59.0976 10.1354 58.5005 10.6392 58.5005 10.8333C58.5005 11.0014 58.6938 11.3699 59.239 12.2415C59.4771 12.622 59.6472 12.9691 59.6241 13.0271C59.6014 13.0844 58.9902 13.6554 58.2658 14.2962C57.1462 15.2867 56.915 15.461 56.7222 15.4593C56.5975 15.4583 55.9434 15.3376 55.2689 15.1911C54.5943 15.0446 53.943 14.9388 53.8216 14.956C53.6195 14.9845 53.6045 15.0051 53.6446 15.1985C53.6688 15.3147 53.9541 15.8175 54.2788 16.316C54.6034 16.8144 54.8533 17.2617 54.8341 17.31C54.8149 17.3583 54.3363 17.8195 53.7706 18.3349L52.742 19.272L52.7229 10.0646L52.7039 0.857058L52.5137 0.599415C52.3141 0.328908 51.8911 -0.00739794 51.7601 0.000123958C51.7177 0.00258439 51.4415 0.099877 51.1461 0.216361ZM3.26838 1.6503C3.10797 1.70366 2.38613 1.84404 1.66428 1.96242C0.942436 2.08074 0.278046 2.19335 0.187779 2.21276L0.0237232 2.24791L0.0253273 4.05675C0.0267856 5.68155 0.0410038 5.89553 0.165395 6.15971C0.376771 6.60857 0.915239 6.79809 1.43635 6.60709C1.53676 6.57025 2.25255 6.42769 3.02697 6.29026C3.80138 6.15282 4.50887 6.02418 4.59906 6.00435L4.76312 5.96836L4.76151 4.15952C4.76005 2.51954 4.74664 2.32256 4.61802 2.04924C4.39723 1.58028 3.91119 1.4366 3.26838 1.6503ZM17.8588 9.77409C16.6976 9.89212 15.5513 10.2771 14.6654 10.8466C14.4525 10.9834 13.9831 11.3496 13.6221 11.6603L12.9659 12.2254L12.9262 11.4982C12.8824 10.6939 12.7958 10.4906 12.3969 10.2561C12.0882 10.0746 11.7954 10.0831 11.0808 10.2939C10.6238 10.4287 8.57927 10.7513 8.1816 10.7513C8.14471 10.7513 8.11729 14.0027 8.11744 18.3611C8.11766 25.7798 8.12123 25.9765 8.25977 26.1955C8.59597 26.7272 8.96645 26.7888 10.1223 26.5054C10.9435 26.3041 11.5122 26.2096 12.5102 26.1086L12.9295 26.0662V19.5405V13.0148L13.2657 12.5835C13.7074 12.0171 14.2891 11.5661 15.0075 11.2331C16.0825 10.7349 16.976 10.7079 17.8843 11.146C18.1607 11.2792 18.4878 11.4993 18.6113 11.6348C19.0439 12.1098 19.3817 12.9381 19.6434 14.1651C19.8215 15.0003 19.9159 17.9189 19.9241 22.8452C19.9291 25.8747 19.9308 25.9091 20.0932 26.2196C20.2245 26.4707 20.3183 26.5536 20.5634 26.6352C20.8458 26.7294 20.9135 26.7251 21.4383 26.5788C21.7512 26.4917 22.5978 26.3348 23.3197 26.2303L24.6321 26.0402L24.6541 22.0689C24.6773 17.8736 24.6175 16.3716 24.3713 14.9692C24.1571 13.7495 23.9652 13.1012 23.6121 12.4033C22.7959 10.7907 21.5305 9.96713 19.5646 9.76903C18.789 9.69093 18.6732 9.69128 17.8588 9.77409ZM94.7022 9.76804C93.075 9.93416 91.7029 10.5759 90.4206 11.7706L89.817 12.333L89.7784 11.5094C89.7462 10.824 89.7145 10.653 89.5891 10.4901C89.3 10.1148 88.8563 10.0257 88.2858 10.2284C88.1254 10.2854 87.3707 10.4274 86.6088 10.5438C85.8468 10.6602 85.1824 10.7694 85.1323 10.7863C85.0081 10.8284 84.9984 25.4989 85.1223 25.9732C85.2926 26.6255 85.7696 26.8264 86.5663 26.5815C86.8303 26.5003 87.6615 26.3463 88.4134 26.2392L89.7805 26.0444L89.7838 19.6457C89.7863 14.8146 89.8086 13.1993 89.8749 13.0528C89.9233 12.946 90.1269 12.675 90.3274 12.4506C91.3417 11.3153 92.6277 10.7243 93.8046 10.8527C95.1866 11.0034 95.9091 11.7277 96.3762 13.4311C96.7667 14.8554 96.7939 15.2968 96.8326 20.8742C96.8719 26.538 96.8519 26.3005 97.3124 26.5712C97.6095 26.7459 97.8887 26.7449 98.4241 26.5673C98.6589 26.4894 99.4516 26.3411 100.185 26.2378L101.52 26.05V21.2801C101.52 18.3375 101.49 16.2487 101.441 15.8276C101.273 14.3714 100.865 12.9426 100.373 12.087C100.025 11.4814 99.1321 10.6217 98.5666 10.3472C97.9069 10.0269 97.2214 9.84727 96.3568 9.76826C95.5102 9.69086 95.4585 9.69086 94.7022 9.76804ZM73.4478 9.81205C73.3476 9.82625 73.0201 9.87286 72.72 9.91567C70.0394 10.298 68.0825 11.6208 66.9297 13.8296C65.8714 15.8571 65.5898 18.5214 66.1665 21.05C66.8266 23.9441 68.5117 25.8272 71.2243 26.7015C73.3108 27.3741 76.0192 27.2515 77.9361 26.3976C81.2079 24.9401 82.904 21.1033 82.2111 16.7266C81.8719 14.5842 81.1994 13.1531 79.9789 11.9765C78.8008 10.8406 77.0771 10.0542 75.3071 9.84509C74.6823 9.77128 73.8417 9.75631 73.4478 9.81205ZM110.524 9.8737C109.124 10.0923 107.786 10.5802 106.89 11.1991C105.931 11.8616 105.024 12.9338 104.511 14.0114C103.874 15.3486 103.637 16.3668 103.586 17.992C103.494 20.9056 104.24 23.2158 105.781 24.7926C106.897 25.9353 108.144 26.5907 109.92 26.9673C110.399 27.069 110.819 27.0942 111.946 27.0888C113.25 27.0825 113.428 27.0662 114.097 26.8919C117.305 26.0557 119.028 24.1932 119.837 20.6854C119.972 20.1032 119.997 19.7705 120 18.5544C120.004 16.9622 119.885 16.164 119.459 14.9052C118.552 12.2305 116.55 10.5377 113.587 9.94161C112.777 9.77866 111.338 9.74675 110.524 9.8737ZM3.38009 10.1595C2.91089 10.3558 2.05357 10.5372 1.23686 10.613C0.143448 10.7145 0.121646 10.7206 0.0435557 10.9442C0.00279696 11.0609 -0.0109108 14.1101 0.00906755 18.6148L0.0422433 26.0917L0.258505 26.3291C0.593909 26.6975 0.929603 26.7625 1.57263 26.5839C2.32991 26.3734 3.1647 26.2225 3.95108 26.1538C4.39388 26.115 4.6563 26.0601 4.69786 25.9973C4.73402 25.9427 4.75429 22.5986 4.7443 18.3311C4.72666 10.7739 4.72644 10.7613 4.57412 10.5631C4.37536 10.3045 3.98002 10.0476 3.78622 10.0511C3.70193 10.0526 3.51921 10.1014 3.38009 10.1595ZM29.6531 10.1538C29.5622 10.3822 29.6855 10.4499 30.3383 10.5307C32.151 10.7548 33.3785 11.533 34.4564 13.1414C34.8363 13.7085 35.8244 15.3991 35.8244 15.4824C35.8244 15.5421 32.7343 16.6733 30.7933 17.3241C29.7023 17.6899 29.2092 17.9491 28.5933 18.4804C27.3901 19.5182 26.6372 20.9402 26.6372 22.1747C26.6372 23.9219 27.9689 25.7535 29.8819 26.6373C31.0044 27.156 31.3723 27.2352 32.6526 27.234C33.8744 27.2328 34.2549 27.1602 35.314 26.7263C36.6493 26.1793 37.8253 25.3633 38.9402 24.2105L39.586 23.5427L40.1591 24.7568C40.4744 25.4245 40.809 26.0886 40.9028 26.2325C41.1999 26.688 41.6642 26.8132 42.2772 26.6026C42.4376 26.5476 43.3153 26.3837 44.2277 26.2385C45.14 26.0934 45.8865 25.9524 45.8865 25.9251C45.8865 25.8978 44.6114 23.1764 43.053 19.8775C41.4946 16.5787 39.85 13.0887 39.3983 12.1221C38.9466 11.1555 38.5098 10.2935 38.4275 10.2065L38.278 10.0483H33.9865C30.2391 10.0483 29.6897 10.0617 29.6531 10.1538ZM75.2702 10.3493C75.8089 10.5426 76.4087 11.1237 76.7213 11.7551C77.4604 13.2483 77.7294 16.011 77.5373 20.1361C77.408 22.9122 77.3093 23.596 76.8682 24.7712C76.3349 26.1923 75.4803 26.7589 73.9665 26.695C72.7607 26.6441 72.1456 26.2326 71.5611 25.0859C71.0399 24.0638 70.9411 23.51 70.6843 20.1712C70.5726 18.7198 70.5586 18.1379 70.611 17.1133C70.7476 14.4402 71.0563 12.7977 71.6174 11.7578C72.0166 11.0182 72.2626 10.7476 72.7767 10.4835C73.5246 10.0991 74.4365 10.05 75.2702 10.3493ZM113.102 10.426C113.912 10.8294 114.488 11.6719 114.821 12.9396C115.233 14.5045 115.407 17.9099 115.225 20.8391C115.013 24.2457 114.348 25.9386 112.981 26.5564C112.622 26.7187 112.472 26.7441 111.872 26.7441C111.229 26.7441 111.14 26.7263 110.671 26.5037C108.971 25.6968 108.429 24.0051 108.324 19.1871C108.215 14.1829 108.841 11.4461 110.298 10.5576C110.792 10.2564 111.112 10.1891 111.946 10.2111C112.617 10.2288 112.761 10.2555 113.102 10.426ZM36.2107 16.6131C36.4635 16.8771 39.3428 23.0268 39.2895 23.1888C39.218 23.4059 38.1693 24.2222 37.6108 24.4955C36.9098 24.8386 36.4188 24.9497 35.6007 24.9507C34.362 24.9522 33.5764 24.6187 32.6162 23.6837C31.5851 22.6798 31.1553 21.8327 31.101 20.6977C31.0606 19.8517 31.1523 19.3762 31.485 18.7069C32.1301 17.409 33.8107 16.469 35.518 16.451C35.9892 16.4461 36.0684 16.4646 36.2107 16.6131Z" fill="#161616"/>
</svg>
